<svg xmlns="http://www.w3.org/2000/svg" xmlns:xlink="http://www.w3.org/1999/xlink" version="1.1" x="0px" y="0px" viewBox="0 0 48 60" enable-background="new 0 0 48 48" xml:space="preserve"><g><path fill="none" stroke="#000" stroke-width="3" stroke-linecap="round" stroke-linejoin="round" stroke-miterlimit="10" d="   M5.357,33.068h27.787c0,0,3.665-0.189,1.309-5.99C31.592,20.035,15.491,12.363,4.867,25.5C4.867,25.5,0.617,31.492,5.357,33.068z"/><path fill="none" stroke="#000" stroke-width="3" stroke-linecap="round" stroke-linejoin="round" stroke-miterlimit="10" d="   M3.296,42.561C3.296,45.002,4.684,47,6.381,47h25.598c1.695,0,3.084-1.998,3.084-4.439v-0.5H3.296V42.561z"/><path fill="none" stroke="#000" stroke-width="3" stroke-linecap="round" stroke-linejoin="round" stroke-miterlimit="10" d="   M1,35.895c2.348,2.521,4.931,3.131,7.626,1.254c0.409-0.283,0.751-0.711,1.167-0.988c0.566-0.375,1.203-0.346,1.838-0.336   c1.44,0.02,2.742,0.691,3.982,1.561c1.277,0.895,2.688,1.43,4.143,1.367c1.678-0.074,3.297-1.598,4.861-2.336   c1.029-0.484,2.058-0.523,3.033,0.152c0.9,0.623,1.811,1.439,2.779,1.871c1.396,0.621,2.982,0.121,4.189-0.904   c0.964-0.818,1.483-1.674,2.703-1.711"/><polyline fill="none" stroke="#000" stroke-width="3" stroke-linecap="round" stroke-linejoin="round" stroke-miterlimit="10" points="   24.035,19.082 23.508,13.5 43.687,13.5 40.527,46.947 26.666,46.947  "/><path fill="none" stroke="#000" stroke-width="3" stroke-linecap="round" stroke-linejoin="round" stroke-miterlimit="10" d="   M37.322,1c0,0-4.103,3.686-4.208,12.5"/><line fill="none" stroke="#000" stroke-width="3" stroke-linecap="round" stroke-linejoin="round" stroke-miterlimit="10" x1="20.193" y1="13.5" x2="47" y2="13.5"/><ellipse cx="11.37" cy="27.654" rx="1.108" ry="1.064"/><ellipse cx="26.151" cy="27.654" rx="1.108" ry="1.064"/><ellipse cx="19.162" cy="23.414" rx="1.35" ry="1.297"/></g></svg>